<svg width="35" height="39" viewBox="0 0 35 39" fill="none" xmlns="http://www.w3.org/2000/svg">
<g filter="url(#filter0_d_36_245)">
<path opacity="0.4" d="M5.125 30.25H29.875" stroke="white" stroke-width="1.5" stroke-linecap="round" stroke-linejoin="round"/>
<path d="M8.69997 11.5234H6.5C5.74375 11.5234 5.125 12.1422 5.125 12.8984V24.7509C5.125 25.5072 5.74375 26.1259 6.5 26.1259H8.69997C9.45622 26.1259 10.075 25.5072 10.075 24.7509V12.8984C10.075 12.1422 9.45622 11.5234 8.69997 11.5234Z" stroke="white" stroke-width="1.5" stroke-linecap="round" stroke-linejoin="round"/>
<path d="M18.5999 7.13672H16.3999C15.6437 7.13672 15.0249 7.75547 15.0249 8.51172V24.7505C15.0249 25.5067 15.6437 26.1255 16.3999 26.1255H18.5999C19.3561 26.1255 19.9749 25.5067 19.9749 24.7505V8.51172C19.9749 7.75547 19.3561 7.13672 18.5999 7.13672Z" stroke="white" stroke-width="1.5" stroke-linecap="round" stroke-linejoin="round"/>
<path d="M28.5 2.75H26.3C25.5438 2.75 24.925 3.36875 24.925 4.125V24.75C24.925 25.5063 25.5438 26.125 26.3 26.125H28.5C29.2563 26.125 29.875 25.5063 29.875 24.75V4.125C29.875 3.36875 29.2563 2.75 28.5 2.75Z" stroke="white" stroke-width="1.5" stroke-linecap="round" stroke-linejoin="round"/>
</g>
<defs>
<filter id="filter0_d_36_245" x="0.375" y="2" width="34.25" height="37" filterUnits="userSpaceOnUse" color-interpolation-filters="sRGB">
<feFlood flood-opacity="0" result="BackgroundImageFix"/>
<feColorMatrix in="SourceAlpha" type="matrix" values="0 0 0 0 0 0 0 0 0 0 0 0 0 0 0 0 0 0 127 0" result="hardAlpha"/>
<feOffset dy="4"/>
<feGaussianBlur stdDeviation="2"/>
<feComposite in2="hardAlpha" operator="out"/>
<feColorMatrix type="matrix" values="0 0 0 0 0 0 0 0 0 0 0 0 0 0 0 0 0 0 0.25 0"/>
<feBlend mode="normal" in2="BackgroundImageFix" result="effect1_dropShadow_36_245"/>
<feBlend mode="normal" in="SourceGraphic" in2="effect1_dropShadow_36_245" result="shape"/>
</filter>
</defs>
</svg>
