<svg width="33" height="33" viewBox="0 0 33 33" fill="none" xmlns="http://www.w3.org/2000/svg">
<path opacity="0.34" d="M16.5 20.625C18.7782 20.625 20.625 18.7782 20.625 16.5C20.625 14.2218 18.7782 12.375 16.5 12.375C14.2218 12.375 12.375 14.2218 12.375 16.5C12.375 18.7782 14.2218 20.625 16.5 20.625Z" stroke="white" stroke-width="1.5" stroke-miterlimit="10" stroke-linecap="round" stroke-linejoin="round"/>
<path d="M2.75 17.71V15.29C2.75 13.86 3.91875 12.6775 5.3625 12.6775C7.85125 12.6775 8.86875 10.9175 7.6175 8.75872C6.9025 7.52122 7.32875 5.91247 8.58 5.19747L10.9587 3.83622C12.045 3.18997 13.4475 3.57497 14.0938 4.66122L14.245 4.92247C15.4825 7.08122 17.5175 7.08122 18.7687 4.92247L18.92 4.66122C19.5663 3.57497 20.9688 3.18997 22.055 3.83622L24.4338 5.19747C25.685 5.91247 26.1112 7.52122 25.3962 8.75872C24.145 10.9175 25.1625 12.6775 27.6513 12.6775C29.0813 12.6775 30.2638 13.8462 30.2638 15.29V17.71C30.2638 19.14 29.095 20.3225 27.6513 20.3225C25.1625 20.3225 24.145 22.0825 25.3962 24.2412C26.1112 25.4925 25.685 27.0875 24.4338 27.8025L22.055 29.1637C20.9688 29.81 19.5663 29.425 18.92 28.3387L18.7687 28.0775C17.5312 25.9187 15.4962 25.9187 14.245 28.0775L14.0938 28.3387C13.4475 29.425 12.045 29.81 10.9587 29.1637L8.58 27.8025C7.32875 27.0875 6.9025 25.4787 7.6175 24.2412C8.86875 22.0825 7.85125 20.3225 5.3625 20.3225C3.91875 20.3225 2.75 19.14 2.75 17.71Z" stroke="white" stroke-width="1.5" stroke-miterlimit="10" stroke-linecap="round" stroke-linejoin="round"/>
</svg>
